<?xml version="1.0" encoding="utf-8"?>
<!-- Generator: Adobe Illustrator 15.0.2, SVG Export Plug-In . SVG Version: 6.00 Build 0)  -->
<!DOCTYPE svg PUBLIC "-//W3C//DTD SVG 1.1//EN" "http://www.w3.org/Graphics/SVG/1.1/DTD/svg11.dtd">
<svg enable-background="new 0 0 1144.067 388" height="388px" id="Layer_1" version="1.1" viewBox="0 0 1144.067 388"
     width="1144.067px"
     x="0px" xml:space="preserve" xmlns="http://www.w3.org/2000/svg" xmlns:xlink="http://www.w3.org/1999/xlink" y="0px">
<linearGradient gradientUnits="userSpaceOnUse" id="SVGID_1_" x1="-10.1328" x2="1154.0669" y1="194" y2="194">
	<stop offset="0" style="stop-color:#003568"/>
  <stop offset="1" style="stop-color:#005384"/>
</linearGradient>
  <polygon fill="url(#SVGID_1_)" points="1154.067,388 -9.938,388 -10.133,0 1154.067,0 "/>
  <g>
	<g>
		<defs>
			<polygon id="SVGID_2_" points="1154.067,388 -9.933,388 -10.128,0 1154.067,0 			"/>
		</defs>
    <clipPath id="SVGID_3_">
			<use overflow="visible" xlink:href="#SVGID_2_"/>
		</clipPath>
    <g clip-path="url(#SVGID_3_)" opacity="0.5">
			<path d="M426.439,273.973c-0.937,10.48-10.189,18.217-20.67,17.281c-10.478-0.936-18.214-10.189-17.277-20.668
				c0.936-10.479,10.185-18.217,20.663-17.279C419.638,254.24,427.375,263.493,426.439,273.973z" fill="#3B73B9"/>
      <path d="M453.092,134.825c-0.559,6.224-6.051,10.818-12.277,10.266c-6.228-0.556-10.825-6.057-10.268-12.281
				c0.558-6.221,6.057-10.814,12.279-10.26C449.047,123.105,453.65,128.603,453.092,134.825z" fill="#3B73B9"/>
      <path d="M542.623,242.423c-0.614,6.88-6.686,11.954-13.558,11.343c-6.882-0.611-11.956-6.686-11.346-13.563
				c0.617-6.874,6.687-11.952,13.562-11.341C538.159,229.479,543.24,235.549,542.623,242.423z" fill="#3B73B9"/>
      <path d="M353.487,164.119c-1.378,15.392-14.965,26.757-30.355,25.381c-15.393-1.371-26.752-14.964-25.381-30.355
				c1.373-15.389,14.965-26.751,30.356-25.38C343.496,135.139,354.858,148.731,353.487,164.119z" fill="#3B73B9"/>
      <circle cx="547.084" cy="147.158" fill="#3B73B9" r="3.927"/>
      <path d="M676.719,310.422c-0.992,11.135-10.826,19.354-21.959,18.36c-11.131-0.993-19.354-10.825-18.361-21.959
				c0.998-11.134,10.826-19.354,21.959-18.362C669.495,289.454,677.711,299.289,676.719,310.422z" fill="#3B73B9"/>
      <path d="M499.809,362.281c-0.668,7.471-7.267,12.988-14.734,12.318c-7.465-0.666-12.988-7.263-12.319-14.729
				c0.67-7.47,7.263-12.988,14.733-12.317C494.96,348.218,500.467,354.818,499.809,362.281z" fill="#3B73B9"/>
      <path d="M801.073,213.197c-0.643,7.205-7.002,12.521-14.207,11.879c-7.205-0.643-12.521-7.006-11.879-14.207
				c0.643-7.206,7.006-12.527,14.205-11.881C796.399,199.63,801.717,205.994,801.073,213.197z" fill="#3B73B9"/>
      <path d="M739.307,94.795c-0.457,5.089-4.951,8.853-10.041,8.399c-5.094-0.455-8.854-4.952-8.402-10.042
				c0.457-5.094,4.953-8.856,10.043-8.402C736,85.207,739.758,89.704,739.307,94.795z" fill="#3B73B9"/>
      <path d="M977,130.949c-0.789,8.843-8.6,15.368-17.438,14.58c-8.842-0.788-15.367-8.595-14.578-17.437
				c0.783-8.843,8.596-15.368,17.436-14.58C971.26,114.302,977.79,122.107,977,130.949z" fill="#3B73B9"/>
      <path d="M950.993,308.96c-0.568,6.366-6.193,11.067-12.555,10.495c-6.369-0.568-11.066-6.188-10.5-12.553
				c0.572-6.369,6.188-11.066,12.553-10.498C946.862,296.973,951.555,302.593,950.993,308.96z" fill="#3B73B9"/>
      <path d="M1068.752,235.102c-1.283,14.41-14.004,25.047-28.414,23.764c-14.404-1.287-25.047-14.012-23.76-28.418
				c1.285-14.407,14.008-25.049,28.42-23.762C1059.405,207.971,1070.043,220.693,1068.752,235.102z" fill="#3B73B9"/>
      <path d="M843.036,353.486c-0.99,11.133-10.82,19.354-21.953,18.361c-11.137-0.994-19.354-10.826-18.359-21.959
				c0.99-11.135,10.824-19.354,21.955-18.361C835.813,332.52,844.034,342.354,843.036,353.486z" fill="#3B73B9"/>
      <path d="M1093.491,71.624c-1.318,14.734-14.324,25.612-29.062,24.297c-14.736-1.317-25.615-14.329-24.303-29.061
				c1.314-14.738,14.326-25.618,29.062-24.302C1083.926,43.872,1094.805,56.888,1093.491,71.624z" fill="#3B73B9"/>
      <path d="M592.616,25.26c-0.727,8.186-7.957,14.23-16.143,13.5c-8.187-0.732-14.232-7.959-13.5-16.145
				c0.728-8.188,7.958-14.231,16.147-13.502C587.303,9.845,593.348,17.075,592.616,25.26z" fill="#3B73B9"/>
      <path d="M840.893,62.775c-0.352,3.929-3.816,6.828-7.752,6.479c-3.926-0.35-6.826-3.821-6.475-7.75
				c0.352-3.93,3.816-6.83,7.744-6.479C838.344,55.376,841.245,58.843,840.893,62.775z" fill="#3B73B9"/>
      <path d="M1226.641,165.264c-0.848,9.498-9.234,16.51-18.729,15.662c-9.496-0.848-16.508-9.229-15.658-18.729
				c0.846-9.496,9.232-16.509,18.725-15.662C1220.479,147.384,1227.489,155.771,1226.641,165.264z" fill="#3B73B9"/>
      <circle cx="1165.264" cy="312.312" fill="#3B73B9" r="20.536"/>
      <path d="M1047.442,372.145c-0.494,5.568-5.41,9.676-10.975,9.181c-5.568-0.497-9.678-5.411-9.182-10.978
				c0.496-5.567,5.41-9.678,10.979-9.182C1043.833,361.661,1047.944,366.577,1047.442,372.145z" fill="#3B73B9"/>
      <g>
				<polygon fill="#3B73B9" points="1040.487,232.451 1066.807,69.24 1044.846,233.095 				"/>
			</g>
      <g>
				<polygon fill="#3B73B9" points="1068.026,67.402 1209.448,163.73 1065.59,71.078 				"/>
			</g>
      <g>
				<polygon fill="#3B73B9" points="1211.561,164.359 1165.264,312.312 1207.333,163.103 				"/>
			</g>
      <g>
				<polygon fill="#3B73B9" points="1040.938,234.141 960.993,129.521 1044.397,231.405 				"/>
			</g>
      <g>
				<polygon fill="#3B73B9" points="963.18,129.785 939.463,307.932 958.803,129.257 				"/>
			</g>
      <g>
				<polygon fill="#3B73B9" points="940.239,309.996 822.877,351.688 938.69,305.867 				"/>
			</g>
      <g>
				<polygon fill="#3B73B9" points="1044.87,232.857 1037.364,371.245 1040.463,232.688 				"/>
			</g>
      <g>
				<polygon fill="#3B73B9" points="1043.868,230.924 1165.264,312.312 1041.465,234.623 				"/>
			</g>
      <g>
				<polygon fill="#3B73B9" points="1041.823,230.736 1209.448,163.73 1043.51,234.811 				"/>
			</g>
      <g>
				<polygon fill="#3B73B9" points="1043.969,234.551 939.463,308.427 1041.364,230.995 				"/>
			</g>
      <g>
				<polygon fill="#3B73B9" points="959.959,131.469 833.78,62.138 962.024,127.573 				"/>
			</g>
      <g>
				<polygon fill="#3B73B9" points="960.657,131.7 730.084,93.972 961.327,127.342 				"/>
			</g>
      <g>
				<polygon fill="#3B73B9" points="833.456,64.319 577.793,23.937 834.106,59.958 				"/>
			</g>
      <g>
				<polygon fill="#3B73B9" points="730.702,96.089 547.084,147.158 729.469,91.855 				"/>
			</g>
      <g>
				<polygon fill="#3B73B9" points="822.94,353.893 486.282,361.074 822.817,349.482 				"/>
			</g>
      <g>
				<polygon fill="#3B73B9" points="528.002,240.924 547.087,147.158 532.342,241.703 				"/>
			</g>
      <g>
				<polygon fill="#3B73B9" points="579.18,25.652 441.818,133.821 576.409,22.222 				"/>
			</g>
      <g>
				<polygon fill="#3B73B9" points="442.332,135.965 325.619,161.633 441.305,131.677 				"/>
			</g>
      <g>
				<polygon fill="#3B73B9" points="530.711,243.451 407.465,272.28 529.632,239.176 				"/>
			</g>
      <g>
				<polygon fill="#3B73B9" points="822.327,353.822 656.559,308.621 823.43,349.553 				"/>
			</g>
      <g>
				<polygon fill="#3B73B9" points="958.565,130.979 788.03,212.033 956.625,127.019 				"/>
			</g>
		</g>
	</g>
</g>
</svg>
